<?xml version="1.0" encoding="utf-8"?>
<!-- Generator: Adobe Illustrator 22.0.1, SVG Export Plug-In . SVG Version: 6.00 Build 0)  -->
<svg version="1.1" id="Layer_1" xmlns="http://www.w3.org/2000/svg" xmlns:xlink="http://www.w3.org/1999/xlink" x="0px" y="0px"
	 viewBox="0 0 285.3 450.9" style="enable-background:new 0 0 285.3 450.9;" xml:space="preserve">
<style type="text/css">
	.st0{fill:none;stroke:#314CA0;stroke-miterlimit:10;}
</style>
<g>
	<path class="st0" d="M38.4,38.9c0,0-17.5,163.2,107.9,205.6s116.9,186,116.9,186"/>
	<path class="st0" d="M46.5,37.1c0,0-6.2,155.7,101.9,208.2s109.2,186.2,109.2,186.2"/>
	<path class="st0" d="M54.6,35.3c0,0,5,148.2,96,210.9S252,432.6,252,432.6"/>
	<path class="st0" d="M62.7,33.5c0,0,16.3,140.8,90,213.5s93.7,186.7,93.7,186.7"/>
	<path class="st0" d="M70.8,31.7c0,0,27.6,133.3,84,216.1s86,187,86,187"/>
	<path class="st0" d="M78.9,29.9c0,0,38.8,125.8,78,218.8s78.3,187.2,78.3,187.2"/>
	<path class="st0" d="M86.9,28.1c0,0,50.1,118.3,72.1,221.4S229.6,437,229.6,437"/>
	<path class="st0" d="M95,26.4c0,0,61.4,110.9,66.1,224.1S224,438.1,224,438.1"/>
	<path class="st0" d="M103.1,24.6c0,0,72.6,103.4,60.1,226.7s55.1,187.9,55.1,187.9"/>
	<path class="st0" d="M111.2,22.8c0,0,83.9,95.9,54.1,229.3s47.4,188.2,47.4,188.2"/>
</g>
</svg>
