<?xml version="1.0" encoding="utf-8"?>
<!-- Generator: Adobe Illustrator 22.0.1, SVG Export Plug-In . SVG Version: 6.00 Build 0)  -->
<svg version="1.1" id="Layer_1" xmlns="http://www.w3.org/2000/svg" xmlns:xlink="http://www.w3.org/1999/xlink" x="0px" y="0px"
	 viewBox="0 0 200 100" style="enable-background:new 0 0 200 100;" xml:space="preserve">
<g>
	<path d="M20.6,56.6c1.2,0.9,3.3,1.7,5.7,1.7c3.6,0,6.4-1.9,7.3-4.5c0.9-2.5,0-3.9-3.2-5.3C26.5,47,24.6,44.7,26,41
		c1.5-4.1,6.1-7.2,11.4-7.2c2.8,0,4.6,0.6,5.6,1.3l-2,2.8c-0.7-0.5-2.3-1.3-4.7-1.3c-3.7,0-5.9,2.2-6.6,4c-0.9,2.5,0.3,3.7,3.6,5.1
		c4,1.7,5.6,3.9,4.1,7.8c-1.5,4.1-5.9,7.7-12.3,7.7c-2.6,0-5.2-0.8-6.4-1.7L20.6,56.6z"/>
	<path d="M58.2,48.3l-10.6,0l-3.5,9.6l11.8,0l-1,2.9l-15.3,0l9.6-26.6l14.7,0l-1,2.9l-11.2,0l-3,8.4l10.6,0L58.2,48.3z"/>
	<path d="M72.6,34.2l-4,11.1l13.2,0l4-11.1l3.6,0l-9.6,26.6l-3.6,0l4.5-12.5l-13.2,0L63,60.8l-3.5,0l9.6-26.6L72.6,34.2z"/>
	<path d="M90.3,60.8L93,34.2l3.7,0l-1.6,13.5c-0.4,3.3-0.9,6.6-1.3,9.2h0.1c1.4-2.6,3.4-5.8,5.6-9.2l8.5-13.4l3.7,0l-1.6,13.5
		c-0.4,3.2-0.8,6.3-1.4,9.1h0.1c1.6-2.9,3.5-5.9,5.5-9.2l8.4-13.4l3.6,0L109,60.8l-3.7,0l1.6-13.9c0.4-3.4,0.8-6,1.4-8.7h-0.1
		c-1.4,2.6-3,5.3-5.2,8.7L94,60.8L90.3,60.8z"/>
	<path d="M125.3,52.5l-5.9,8.4l-3.6,0l18.9-26.6l4.3,0l-0.3,26.6l-3.8,0l0.1-8.4L125.3,52.5z M135.2,49.8l0.1-7.7
		c0-1.7,0.2-3.3,0.3-4.9h-0.1c-1,1.6-2,3.2-3.1,4.8l-5.4,7.7L135.2,49.8z"/>
</g>
</svg>
