<?xml version="1.0" encoding="utf-8"?>
<!-- Generator: Adobe Illustrator 22.0.1, SVG Export Plug-In . SVG Version: 6.00 Build 0)  -->
<svg version="1.1" id="Layer_1" xmlns="http://www.w3.org/2000/svg" xmlns:xlink="http://www.w3.org/1999/xlink" x="0px" y="0px"
	 viewBox="0 0 500 500" style="enable-background:new 0 0 500 500;" xml:space="preserve">
<style type="text/css">
	.st0{fill:#FF0000;}
</style>
<g>
	<polygon class="st0" points="258.1,278.3 190.8,333.8 222.7,252.6 149.1,205.7 236.2,211 258.1,126.5 280,211 367.1,205.7 
		293.5,252.6 325.5,333.8 	"/>
	<path d="M258.1,128.5l21.3,82.2l0.2,0.8l0.8,0l84.8-5.2l-71.6,45.7l-0.7,0.4l0.3,0.8l31.1,79l-65.5-54l-0.6-0.5l-0.6,0.5l-65.5,54
		l31.1-79l0.3-0.8l-0.7-0.4L151,206.3l84.8,5.2l0.8,0l0.2-0.8L258.1,128.5 M258.1,124.5l-22.3,85.9l-88.6-5.4l74.9,47.7l-32.5,82.6
		l68.5-56.4l68.5,56.4l-32.5-82.6l74.9-47.7l-88.6,5.4L258.1,124.5L258.1,124.5z"/>
</g>
</svg>
