<?xml version="1.0" encoding="utf-8"?>
<!-- Generator: Adobe Illustrator 26.2.1, SVG Export Plug-In . SVG Version: 6.00 Build 0)  -->
<svg version="1.1" id="Layer_1" xmlns="http://www.w3.org/2000/svg" xmlns:xlink="http://www.w3.org/1999/xlink" x="0px" y="0px"
	 viewBox="0 0 192.8 34" style="enable-background:new 0 0 192.8 34;" xml:space="preserve">
<style type="text/css">
	.st0{fill:#010202;}
</style>
<g>
	<path class="st0" d="M183.4,0.6h-11.2v33h11.2c4.3,0,7.8-3.5,7.8-7.8V8.4C191.1,4.1,187.6,0.6,183.4,0.6z M185.9,25.8
		c0,1.4-1.1,2.5-2.5,2.5h-6V5.8h6c1.4,0,2.5,1.1,2.5,2.5V25.8z"/>
	<rect x="134.8" y="0.6" class="st0" width="5.2" height="33"/>
	<path class="st0" d="M157.7,0.6h-3.4c-4.3,0-7.8,3.5-7.8,7.8v25.2h5.2V8.4c0-1.4,1.1-2.5,2.5-2.5h3.4c1.4,0,2.5,1.1,2.5,2.5v25.2
		h5.2V8.4C165.5,4.1,162,0.6,157.7,0.6z"/>
	<path class="st0" d="M88.7,20.4c3-1.2,5-4.1,5-7.2V8.4c0-4.3-3.5-7.8-7.8-7.8H75.8v33h5.2V20.9h2.1l6.4,12.7h5.4l-6.4-13.1
		L88.7,20.4z M88.4,13.2c0,1.4-1.1,2.5-2.5,2.5h-4.8V5.8h4.8c1.4,0,2.5,1.1,2.5,2.5V13.2z"/>
	<path class="st0" d="M122.7,26.3c0,1.5-0.8,2-1.6,2h-2.9c-0.8,0-1.6-0.5-1.6-2V0.6h-5.2v25.8c0,1.4-0.9,2-1.6,2h-2.9
		c-0.8,0-1.6-0.5-1.6-2V0.6h-5.2v25.8c0,4.3,3.1,7.2,6.8,7.2h2.9c1.4,0,2.8-0.5,4.1-1.6l0.1-0.1l0.1,0.1c1.3,1,2.7,1.6,4.1,1.6h2.9
		c3.8,0,6.8-2.9,6.8-7.2V0.6h-5.2V26.3z"/>
	<polygon class="st0" points="17.4,0.5 6.8,14.8 6.8,0.5 1.6,0.5 1.6,33.6 6.8,33.6 6.8,22.8 9.6,19 17.4,33.6 23.2,33.6 12.7,14.7 
		23.2,0.5 	"/>
	<path class="st0" d="M63.7,0.6h-3.4h-1.8H56h-0.8l-5.9,33h5.2l1.2-6.8v0.1h7.6l1.2,6.7h5.2L63.7,0.6L63.7,0.6z M56.6,21.7l2.8-15.8
		h0l2.8,15.8H56.6z"/>
	<path class="st0" d="M34.3,25.8V0.5H29v25.3c0,4.3,3.5,7.8,7.8,7.8h8.3v-5.2h-8.3C35.4,28.3,34.3,27.2,34.3,25.8z"/>
</g>
</svg>
