<?xml version="1.0" encoding="utf-8"?>
<!-- Generator: Adobe Illustrator 26.2.1, SVG Export Plug-In . SVG Version: 6.00 Build 0)  -->
<svg version="1.1" id="Layer_1" xmlns="http://www.w3.org/2000/svg" xmlns:xlink="http://www.w3.org/1999/xlink" x="0px" y="0px"
	 viewBox="0 0 578.3 246.6" style="enable-background:new 0 0 578.3 246.6;" xml:space="preserve">
<style type="text/css">
	.st0{fill:#727178;}
</style>
<g>
	<path class="st0" d="M505.7,82.8h-27.9V165h27.9c10.7,0,19.4-8.7,19.4-19.4v-43.4C525,91.5,516.4,82.8,505.7,82.8z M512,145.6
		c0,3.5-2.8,6.3-6.3,6.3h-14.8v-56h14.8c3.5,0,6.3,2.8,6.3,6.3V145.6z"/>
	<rect x="384.7" y="82.8" class="st0" width="12.9" height="82.1"/>
	<path class="st0" d="M441.9,82.8h-8.5c-10.7,0-19.4,8.7-19.4,19.4V165H427v-62.8c0-3.5,2.8-6.3,6.3-6.3h8.5c3.5,0,6.3,2.8,6.3,6.3
		V165h13.1v-62.8C461.2,91.5,452.6,82.8,441.9,82.8z"/>
	<path class="st0" d="M270,132.2c7.4-3,12.4-10.2,12.4-18v-12c0-10.7-8.7-19.4-19.4-19.4h-25.1V165h13.1v-31.6h5.2l15.9,31.6h13.4
		l-16-32.5L270,132.2z M269.3,114.2c0,3.5-2.8,6.3-6.3,6.3h-12.1V95.9H263c3.5,0,6.3,2.8,6.3,6.3V114.2z"/>
	<path class="st0" d="M354.7,147c0,3.8-2,4.9-3.9,4.9h-7.2c-1.9,0-4.1-1.3-4.1-4.9V82.8h-12.9V147c0,3.6-2.2,4.9-4.1,4.9h-7.2
		c-1.9,0-3.9-1.1-3.9-4.9V82.8h-13.1V147c0,10.7,7.6,18,17,18h7.2c3.5,0,7.1-1.3,10.2-3.9l0.3-0.3l0.3,0.3c3.2,2.5,6.7,3.9,10.2,3.9
		h7.2c9.4,0,17-7.3,17-18V82.8h-13.1V147z"/>
	<polygon class="st0" points="92.4,82.5 65.9,118.3 65.9,82.5 53.1,82.5 53.1,165 65.9,165 65.9,138.2 72.9,128.7 92.4,165 
		106.7,165 80.7,118 106.7,82.5 	"/>
	<path class="st0" d="M207.8,82.8h-8.4h-4.6h-6.4h-2.1L171.6,165h13.1l3-16.8v0.3h18.9l3,16.6h13.1L207.8,82.8L207.8,82.8z
		 M190,135.3l7.1-39.4h0.1l7.1,39.4H190z"/>
	<path class="st0" d="M134.3,145.6V82.5h-13.1v63.1c0,10.7,8.7,19.4,19.4,19.4h20.8v-13.1h-20.8
		C137.2,151.9,134.3,149.1,134.3,145.6z"/>
</g>
</svg>
