<?xml version="1.0" encoding="utf-8"?>
<!-- Generator: Adobe Illustrator 26.2.1, SVG Export Plug-In . SVG Version: 6.00 Build 0)  -->
<svg version="1.1" id="Layer_1" xmlns="http://www.w3.org/2000/svg" xmlns:xlink="http://www.w3.org/1999/xlink" x="0px" y="0px"
	 viewBox="0 0 246.6 56.7" style="enable-background:new 0 0 246.6 56.7;" xml:space="preserve">
<style type="text/css">
	.st0{fill:#727178;}
</style>
<g>
	<path class="st0" d="M217.9,10.5h-12.2v35.8h12.2c4.7,0,8.5-3.8,8.5-8.5V18.9C226.3,14.3,222.5,10.5,217.9,10.5z M220.6,37.9
		c0,1.5-1.2,2.7-2.7,2.7h-6.5V16.2h6.5c1.5,0,2.7,1.2,2.7,2.7V37.9z"/>
	<rect x="165.1" y="10.5" class="st0" width="5.6" height="35.8"/>
	<path class="st0" d="M190,10.5h-3.7c-4.7,0-8.5,3.8-8.5,8.5v27.4h5.7V18.9c0-1.5,1.2-2.7,2.7-2.7h3.7c1.5,0,2.7,1.2,2.7,2.7v27.4
		h5.7V18.9C198.5,14.3,194.7,10.5,190,10.5z"/>
	<path class="st0" d="M115,32c3.2-1.3,5.4-4.5,5.4-7.9v-5.2c0-4.7-3.8-8.5-8.5-8.5h-11v35.8h5.7V32.6h2.3l6.9,13.8h5.8l-7-14.2
		L115,32z M114.7,24.2c0,1.5-1.2,2.7-2.7,2.7h-5.3V16.2h5.3c1.5,0,2.7,1.2,2.7,2.7V24.2z"/>
	<path class="st0" d="M151.9,38.5c0,1.6-0.9,2.1-1.7,2.1h-3.1c-0.8,0-1.8-0.6-1.8-2.1v-28h-5.6v28c0,1.6-0.9,2.1-1.8,2.1h-3.1
		c-0.8,0-1.7-0.5-1.7-2.1v-28h-5.7v28c0,4.7,3.3,7.8,7.4,7.8h3.1c1.5,0,3.1-0.6,4.5-1.7l0.1-0.1l0.1,0.1c1.4,1.1,2.9,1.7,4.5,1.7
		h3.1c4.1,0,7.4-3.2,7.4-7.8v-28h-5.7V38.5z"/>
	<polygon class="st0" points="37.5,10.4 25.9,26 25.9,10.4 20.3,10.4 20.3,46.3 25.9,46.3 25.9,34.7 28.9,30.5 37.5,46.3 43.7,46.3 
		32.4,25.8 43.7,10.4 	"/>
	<path class="st0" d="M87.8,10.5h-3.7h-2h-2.8h-0.9L72,46.3h5.7l1.3-7.3v0.1h8.2l1.3,7.2h5.7L87.8,10.5L87.8,10.5z M80.1,33.4
		l3.1-17.2h0l3.1,17.2H80.1z"/>
	<path class="st0" d="M55.8,37.9V10.4h-5.7v27.5c0,4.7,3.8,8.5,8.5,8.5h9.1v-5.7h-9.1C57,40.6,55.8,39.4,55.8,37.9z"/>
</g>
</svg>
