<svg xmlns="http://www.w3.org/2000/svg" width="185" height="72" viewBox="0 0 185 72" xmlns:xlink="http://www.w3.org/1999/xlink">
  <defs>
    <polygon id="a" points="133.693 17.564 133.693 .119 .219 .119 .219 17.564"/>
    <linearGradient id="c" x1="0%" x2="81.428%" y1="202.426%" y2="26.894%">
      <stop stop-color="#44C1B0" offset="0%"/>
      <stop stop-color="#385569" offset="100%"/>
    </linearGradient>
    <linearGradient id="d" x1="23.485%" x2="94.85%" y1="83.592%" y2="0%">
      <stop stop-color="#44C1B0" offset="0%"/>
      <stop stop-color="#385569" offset="100%"/>
    </linearGradient>
  </defs>
  <g fill="none" fill-rule="evenodd" transform="translate(0 15)">
    <g transform="translate(50.702 16.022)">
      <mask id="b" fill="white">
        <use xlink:href="#a"/>
      </mask>
      <path fill="#385569" d="M21.0981832,0.118943283 L23.5038179,0.118943283 L29.4447844,15.1202421 L35.3618664,0.118943283 L37.766663,0.118943283 L37.766663,17.2289909 L36.1312002,17.2289909 L36.1312002,2.44395256 L36.0834311,2.44395256 L30.2145372,17.2289909 L28.6750316,17.2289909 L22.7822532,2.44395256 L22.734065,2.44395256 L22.734065,17.2289909 L21.0981832,17.2289909 L21.0981832,0.118943283 Z M12.4142651,15.8399972 L6.78589281,15.8399972 L6.78589281,9.00942139 L12.4142651,9.00942139 C15.3005239,9.00942139 16.9364058,10.1115985 16.9364058,12.3172053 C16.9364058,15.0964451 14.8433653,15.8399972 12.4142651,15.8399972 L12.4142651,15.8399972 Z M6.78589281,1.50918945 L12.4142651,1.50918945 C14.9879297,1.50918945 16.2869138,2.58756958 16.2869138,4.72011535 C16.2869138,6.32536956 15.0118142,7.6204277 12.4142651,7.6204277 L6.78589281,7.6204277 L6.78589281,1.50918945 Z M14.9401606,8.19531327 L14.9401606,8.14604929 C16.7197688,7.76362723 17.9219576,6.11036152 17.9219576,4.31222631 C17.9219576,1.12551491 15.3005239,0.118943283 12.4142651,0.118943283 L5.15084898,0.118943283 L5.15084898,17.2289909 L12.4142651,17.2289909 C17.9948683,17.2289909 18.5718686,13.994268 18.5718686,12.3647993 C18.5718686,10.1353955 17.1526238,8.4833823 14.9401606,8.19531327 L14.9401606,8.19531327 Z M0.219318795,17.2289909 L1.85478165,17.2289909 L1.85478165,0.118943283 L0.219318795,0.118943283 L0.219318795,17.2289909 Z M115.745515,4.84077035 L118.992137,4.84077035 L118.992137,6.56542708 L119.065467,6.56542708 C119.930339,5.15138391 121.421657,4.50468982 122.864786,4.50468982 C126.496494,4.50468982 127.410811,6.54163007 127.410811,9.60893895 L127.410811,17.2294084 L123.994902,17.2294084 L123.994902,10.231836 C123.994902,8.19489578 123.417902,7.18832416 121.806742,7.18832416 C119.954224,7.18832416 119.161424,8.21869279 119.161424,10.7361656 L119.161424,17.2294084 L115.745515,17.2294084 L115.745515,4.84077035 Z M107.664158,4.50468982 C111.583738,4.50468982 114.109214,7.09271864 114.109214,11.0467791 C114.109214,14.9774601 111.583738,17.563819 107.664158,17.563819 C103.767206,17.563819 101.241729,14.9774601 101.241729,11.0467791 C101.241729,7.09271864 103.767206,4.50468982 107.664158,4.50468982 L107.664158,4.50468982 Z M91.8127811,13.2035394 C91.8127811,14.6651766 93.1121842,15.2880737 94.4342148,15.2880737 C95.3963011,15.2880737 96.6718196,14.9056516 96.6718196,13.7066165 C96.6718196,12.6762478 95.2286902,12.2925733 92.799171,11.7903312 C90.8025067,11.3335957 88.8552877,10.6873191 88.8552877,8.48296481 C88.8552877,5.31879793 91.5969821,4.50468982 94.2661849,4.50468982 C96.9596912,4.50468982 99.4851677,5.41565593 99.7504119,8.4591678 L96.5025327,8.4591678 C96.4065754,7.14031265 95.3963011,6.78210508 94.1702277,6.78210508 C93.4000558,6.78210508 92.2699397,6.90150761 92.2699397,7.93187624 C92.2699397,9.1534559 94.2184158,9.32086993 96.1425884,9.77760546 C98.1392526,10.231836 100.086053,10.9511736 100.086053,13.2511334 C100.086053,16.5096533 97.2249354,17.563819 94.4103302,17.563819 C91.5249095,17.563819 88.6864198,16.4858563 88.566159,13.2035394 L91.8127811,13.2035394 Z M84.9105664,4.84077035 L87.4109012,4.84077035 L87.4109012,7.11651565 L84.9105664,7.11651565 L84.9105664,13.2511334 C84.9105664,14.4009046 85.198438,14.6893911 86.3524387,14.6893911 C86.7379436,14.6893911 87.099145,14.6651766 87.4109012,14.5937856 L87.4109012,17.2532054 C86.8339009,17.3488109 86.0888706,17.3726079 85.4159131,17.3726079 C83.29815,17.3726079 81.4950763,16.9187948 81.4950763,14.4251191 L81.4950763,7.11651565 L79.4263394,7.11651565 L79.4263394,4.84077035 L81.4950763,4.84077035 L81.4950763,1.12551491 L84.9105664,1.12551491 L84.9105664,4.84077035 Z M67.0151751,8.65037883 C67.2070895,5.48746444 70.0694638,4.50468982 72.8589273,4.50468982 C75.3366347,4.50468982 78.3188507,5.05577839 78.3188507,8.02748175 L78.3188507,14.4727131 C78.3188507,15.5999397 78.4391115,16.7259138 78.7521248,17.2294084 L75.2884466,17.2294084 C75.1686048,16.8457339 75.0726476,16.4378448 75.0487631,16.0316257 C73.9651589,17.1575999 72.4017687,17.563819 70.8626821,17.563819 C68.4821891,17.563819 66.6296702,16.3902508 66.6296702,13.851486 C66.6778583,8.21869279 75.0487631,11.2379902 74.9033607,8.4591678 C74.9033607,7.02091013 73.8930863,6.78210508 72.6908975,6.78210508 C71.3676098,6.78210508 70.5505069,7.30772668 70.4306652,8.65037883 L67.0151751,8.65037883 Z M62.4435892,17.2294084 L58.6907823,17.2294084 L55.781477,5.58306995 L55.7337079,5.58306995 L52.8709146,17.2294084 L49.0472921,17.2294084 L44.5012669,0.118943283 L48.2771203,0.118943283 L50.9945112,11.7665342 L51.0422803,11.7665342 L54.0249153,0.118943283 L57.5606662,0.118943283 L60.4955321,11.9101512 L60.5433012,11.9101512 L63.3566493,0.118943283 L67.0616871,0.118943283 L62.4435892,17.2294084 Z" mask="url(#b)"/>
    </g>
    <g transform="translate(0 .158)">
      <path fill="url(#c)" d="M4.88447344,15.9878726 C4.73655687,15.9878726 4.58989738,15.9486285 4.46083702,15.874315 L0.424767793,13.5526457 C0.228244073,13.439923 0.0878699873,13.2574793 0.0292061903,13.0391313 C-0.0294576066,12.8212008 0.000712346105,12.5932506 0.114268696,12.3974471 C0.26511846,12.136515 0.547123712,11.9745284 0.850080321,11.9745284 C0.997996895,11.9745284 1.14465639,12.0137726 1.27329771,12.088086 L5.30978597,14.4097554 C5.50589066,14.5228955 5.64626475,14.7049218 5.70492855,14.9232697 C5.76359234,15.1416177 5.73384142,15.3691505 5.62028507,15.5649539 C5.46901628,15.825886 5.18701103,15.9878726 4.88447344,15.9878726 Z M11.7875681,9.11162327 C11.4850306,9.11162327 11.2030253,8.94963663 11.0517565,8.68870454 L8.7215467,4.66742794 C8.48731053,4.26329633 8.62684657,3.74518957 9.03204579,3.5122294 C9.16110615,3.43791595 9.30776564,3.39867176 9.45568221,3.39867176 C9.75863882,3.39867176 10.040225,3.5606584 10.1914938,3.82159049 L12.5217037,7.84286708 C12.63526,8.03867052 12.66543,8.26662079 12.6067662,8.48455127 C12.5481024,8.70289925 12.4073093,8.88534296 12.2112046,8.99806562 C12.0821442,9.07237908 11.9354847,9.11162327 11.7875681,9.11162327 Z M21.1925481,6.59460972 C20.7215616,6.59460972 20.3381518,6.21511009 20.3381518,5.74877227 L20.3381518,1.10543357 C20.3381518,0.639095745 20.7215616,0.260013607 21.1925481,0.260013607 C21.6635346,0.260013607 22.0469444,0.639095745 22.0469444,1.10543357 L22.0469444,5.74877227 C22.0469444,6.21511009 21.6635346,6.59460972 21.1925481,6.59460972 Z M30.6413163,9.11162327 C30.4933998,9.11162327 30.3467403,9.07237908 30.2176799,8.99806562 C29.8124807,8.76510546 29.6729447,8.2469987 29.9071808,7.84286708 L32.2373906,3.82159049 C32.3886594,3.5606584 32.6706647,3.39867176 32.9732023,3.39867176 C33.1211188,3.39867176 33.2677783,3.43791595 33.3968387,3.5122294 C33.8020379,3.74518957 33.9415739,4.26329633 33.7073378,4.66742794 L31.377128,8.68870454 C31.2258592,8.94963663 30.9438539,9.11162327 30.6413163,9.11162327 Z M37.544411,15.9878726 C37.2418735,15.9878726 36.9598682,15.825886 36.8085994,15.5649539 C36.6950431,15.3691505 36.6652921,15.1412002 36.7239559,14.9232697 C36.7826197,14.7049218 36.9229938,14.5228955 37.1190985,14.4097554 L41.1555868,12.088086 C41.2842281,12.0137726 41.4308876,11.9745284 41.5788042,11.9745284 C41.8817608,11.9745284 42.163766,12.136515 42.3146158,12.3974471 C42.4281721,12.5932506 42.4583421,12.8212008 42.3996783,13.0391313 C42.3410145,13.2574793 42.2006404,13.439923 42.0041167,13.5526457 L37.9680475,15.874315 C37.8389871,15.9486285 37.6923276,15.9878726 37.544411,15.9878726 Z"/>
      <path fill="url(#d)" d="M16.776086,12.7456349 C18.0855458,12.7456349 19.4511552,12.9147189 20.8352017,13.248712 C21.0937415,13.0487336 21.3543763,12.858775 21.6104019,12.6838462 C22.4220575,12.1285827 23.2257515,11.6927217 23.9988565,11.3892055 C23.2358081,11.2280539 22.4518084,11.1332833 21.6682277,11.1073989 C21.5182159,11.102389 21.3661091,11.099884 21.2169354,11.099884 C19.6304988,11.099884 18.0658515,11.3783508 16.5657344,11.9273519 C15.8139997,12.2024787 15.0861496,12.5435691 14.4022974,12.9414383 C14.8468852,12.8650374 15.3103291,12.8103461 15.7804776,12.7786167 C16.1073187,12.7569072 16.4421214,12.7456349 16.776086,12.7456349 M22.89472,13.8636767 C23.2668161,13.996439 23.6418454,14.1425609 24.0101702,14.2982852 C25.1164018,14.0603151 26.1958157,13.9258829 27.2186609,13.898746 C27.3468832,13.895406 27.4759436,13.8937361 27.6016517,13.8937361 C28.0755714,13.8937361 28.5385963,13.9179506 28.9785748,13.9655446 C28.7108165,13.4962843 28.3667952,13.1384942 27.9553106,12.9021941 C27.5501114,12.6688165 27.0749346,12.5506664 26.5436082,12.5506664 C26.2716596,12.5506664 25.9812738,12.5819783 25.6795743,12.6433495 C24.8360727,12.814521 23.8731484,13.2366047 22.89472,13.8636767 M26.6370513,15.6204803 C27.7126939,16.2529797 28.7259015,16.9689773 29.6498563,17.7496861 C29.6842165,17.033271 29.6544656,16.3648673 29.5614415,15.7628448 C28.9643279,15.6446948 28.3064553,15.5849935 27.6054229,15.5849935 C27.4931237,15.5849935 27.3783102,15.586246 27.2634968,15.5895859 C27.0594306,15.5945958 26.84866,15.6050331 26.6370513,15.6204803 M31.2140845,19.2188381 C31.9155359,19.9523704 32.5428195,20.7243119 33.0795933,21.5142055 C33.1923115,21.152658 33.2736028,20.7952854 33.3217909,20.4516901 C33.4630031,19.4434485 33.3176007,18.5579493 32.8893549,17.8194072 C32.5444956,17.2240645 32.0219688,16.7368521 31.3360214,16.3711297 C31.375829,16.9648024 31.3699626,17.6031466 31.3175842,18.2677929 C31.2932806,18.576319 31.2585014,18.8961173 31.2140845,19.2188381 M16.776505,14.4368923 C16.4806719,14.4368923 16.1835817,14.4469121 15.894872,14.4661167 C14.4324673,14.5642272 13.1376735,14.9044826 12.0456888,15.4772807 C10.9499329,16.0521663 10.1068504,16.8399725 9.53948764,17.8194072 C8.97170589,18.7984244 8.70855685,19.9202236 8.75674497,21.1530755 C8.79068617,22.0247974 8.9796674,22.9332586 9.31782229,23.853827 C10.0926034,22.7069783 11.0701937,21.5830916 12.2241944,20.5138963 C13.5981843,19.2405477 15.1724692,18.090359 16.9030512,17.0946422 C16.9654863,17.0587379 17.0279213,17.0232512 17.0903564,16.9881819 C17.7737896,16.1369171 18.4915831,15.3486934 19.2227854,14.644803 C18.3914356,14.5070309 17.5684663,14.4368923 16.776505,14.4368923 M34.1661306,23.3783044 C34.3676826,23.7903683 34.5470262,24.2078597 34.698714,24.6190886 C34.7029043,23.9064309 34.6496879,23.1895983 34.5403218,22.4869604 C34.4322128,22.7812917 34.3060856,23.0810505 34.1661306,23.3783044 M7.7297095,24.4512571 C7.72551923,25.1639148 7.77873567,25.881165 7.88810175,26.5838029 C7.99662978,26.289054 8.12275694,25.9892952 8.262712,25.6920414 C8.06074093,25.2795599 7.88181634,24.8624861 7.7297095,24.4512571 M10.1768279,25.6836916 C10.5816081,26.3921744 11.0680986,27.0914724 11.6220524,27.7619634 C12.1915103,25.4832957 13.191309,23.0672733 14.5141776,20.7710709 C14.1219682,21.0883644 13.7406536,21.4186 13.3802902,21.7521756 C12.1546359,22.887752 11.1565133,24.0755149 10.4139972,25.2816474 C10.333125,25.4135747 10.2530908,25.5488418 10.1768279,25.6836916 M30.8067901,21.3083823 C30.2369133,23.58705 29.2371145,26.0030724 27.9142459,28.2996923 C28.3068743,27.9819814 28.688189,27.6521632 29.0485523,27.3181702 C30.2742067,26.1821762 31.2723293,24.9948308 32.0148453,23.7882809 C32.0957176,23.6567711 32.1753327,23.5219214 32.2520147,23.3870717 C31.8468155,22.6781714 31.360744,21.9788734 30.8067901,21.3083823 M9.34924932,27.5561402 C9.23653103,27.9181052 9.15523977,28.2750603 9.10705165,28.6186557 C8.96625853,29.6268973 9.11166095,30.5123964 9.53948764,31.2509386 C9.88434696,31.8458637 10.4068738,32.3330761 11.0928212,32.6987986 C11.0525946,32.1051259 11.05888,31.4671991 11.1112584,30.8021354 C11.1351429,30.4940268 11.1699222,30.1742284 11.214339,29.8510901 C10.5133067,29.1179753 9.88602307,28.3460338 9.34924932,27.5561402 M13.0283074,29.2691072 C14.1462718,30.3366325 15.4259806,31.2880953 16.8322357,32.0971935 C17.4042077,32.4261767 17.9941979,32.7292754 18.5858642,32.9981398 C18.9583793,32.9067092 19.3388559,32.8019189 19.7163993,32.6862738 C21.2269921,32.2236934 22.7405181,31.5795043 24.2138174,30.771241 C24.9990742,29.7692618 25.736143,28.675852 26.4053293,27.5210709 C27.344369,25.9003696 28.1028081,24.2425114 28.6592761,22.5934206 C28.9827651,21.6348605 29.2320862,20.6950875 29.4001161,19.8008211 C28.2821517,18.7332957 27.0024429,17.7822504 25.5961879,16.9731522 C25.0242159,16.644169 24.4346447,16.3410703 23.8429784,16.0722059 C23.4700443,16.1636365 23.0899867,16.2684268 22.7124432,16.3840719 C21.2018505,16.8462348 19.6883245,17.4908415 18.2146061,18.2995222 C17.4293493,19.3010839 16.6922806,20.3944938 16.0230943,21.5492748 C15.0840545,23.1699762 14.3256154,24.8278343 13.7695664,26.4769251 C13.4456585,27.4354852 13.1967563,28.3752582 13.0283074,29.2691072 M12.867401,33.3075009 C13.4645147,33.425651 14.1228063,33.4853522 14.8246767,33.4853522 C14.936557,33.4853522 15.0509514,33.4836823 15.1653458,33.4807598 C15.369412,33.4753324 15.5797636,33.4648952 15.7913723,33.4498655 C14.7161487,32.8173661 13.7025221,32.100951 12.7789863,31.3206596 C12.7442071,32.0370748 12.773958,32.7050609 12.867401,33.3075009 M23.2056382,34.4251252 C24.036988,34.5633149 24.8599572,34.6334534 25.6519185,34.6334534 C25.9481707,34.6334534 26.2448419,34.6234336 26.5339706,34.604229 C27.9959562,34.5061186 29.291169,34.1658631 30.3827347,33.593065 C31.4784906,33.0181794 32.3219922,32.2303733 32.8893549,31.2509386 C33.4567177,30.2715039 33.7198667,29.1501222 33.6716786,27.9172702 C33.6377374,27.0455483 33.4487561,26.1370871 33.1106013,25.2165187 C32.3362391,26.3633675 31.3586489,27.4872541 30.2046482,28.5564495 C28.8306582,29.8297981 27.2563733,30.9799867 25.5257913,31.9752861 C25.4633563,32.0116078 25.4009213,32.0470946 25.3380672,32.0825813 C24.654634,32.9338462 23.9368405,33.7220698 23.2056382,34.4251252 M13.4502678,35.1048012 C13.7180261,35.5736439 14.0620474,35.931434 14.473113,36.1681516 C14.8787312,36.4011118 15.3534889,36.5192618 15.8852344,36.5192618 C16.1567639,36.5192618 16.4475688,36.4883675 16.7488493,36.4269962 C17.5927699,36.2554073 18.5552752,35.833741 19.5337035,35.2062515 C19.1620264,35.0739068 18.7869972,34.9277848 18.4186723,34.7720606 C17.3124407,35.0100306 16.2330269,35.1444628 15.2101817,35.1715998 C15.0811213,35.1749397 14.9516419,35.1766097 14.8255148,35.1766097 C14.3524332,35.1766097 13.8898272,35.1523952 13.4502678,35.1048012 M18.4299861,37.6811402 C19.1926154,37.8422919 19.9766152,37.9370624 20.7601959,37.9629469 C20.9102076,37.9679568 21.0623144,37.9704617 21.2123262,37.9704617 C22.7983438,37.9704617 24.3629911,37.691995 25.8631082,37.1429939 C26.6148428,36.8678671 27.3422739,36.5267767 28.0265452,36.1289074 C27.5819574,36.2053083 27.1180944,36.2599997 26.647946,36.291729 C26.3211048,36.3134386 25.9863021,36.3247108 25.6523375,36.3247108 C24.3428778,36.3247108 22.9776874,36.1552094 21.5936408,35.8216338 C21.3351011,36.0211946 21.0744662,36.2111532 20.8184407,36.3860821 C20.0063661,36.9417631 19.2030911,37.3772065 18.4299861,37.6811402 M21.2127452,39.6617191 C21.0438772,39.6617191 20.8729142,39.6587967 20.7040463,39.6533693 C18.6726028,39.5861532 16.6998231,39.1173104 14.8405997,38.2602007 C12.9813764,37.403091 11.3459136,36.2082308 9.97946611,34.7094369 C8.65994971,33.2619944 7.6463231,31.5932815 6.96666111,29.7500572 C6.28699912,27.9064155 5.97524294,25.9809454 6.04061117,24.0266684 C6.10807454,22.0026704 6.57822297,20.0371212 7.43890468,18.1847121 C8.29916736,16.332303 9.49800395,14.7028343 11.0027303,13.341395 C12.4554974,12.0267148 14.1303488,11.0168033 15.9803535,10.3396323 C17.6681948,9.72174511 19.4297848,9.40862661 21.2160974,9.40862661 C21.3845463,9.40862661 21.5559284,9.41154905 21.7247963,9.41697643 C23.7558208,9.48419254 25.7286005,9.95303532 27.5878238,10.810145 C29.4474662,11.6672548 31.082929,12.8616975 32.4493765,14.3609089 C33.7688929,15.8083514 34.7825195,17.4770643 35.4621815,19.3202885 C36.1418435,21.1635128 36.4531806,23.0894004 36.3882314,25.0436773 C36.320768,27.0672579 35.8502006,29.0328071 34.9899379,30.8856337 C34.1296752,32.7380427 32.9304196,34.3675114 31.4261122,35.7289507 C29.9733452,37.0436309 28.2984938,38.0535425 26.44807,38.7307134 C24.7602288,39.3486006 22.9986388,39.6617191 21.2127452,39.6617191"/>
    </g>
    <g transform="translate(95 16)">
      <path fill="#385569" d="M71.4477968,4.86304429 L74.6944189,4.86304429 L74.6944189,6.58770101 L74.7677487,6.58770101 C75.6326207,5.17365784 77.1239382,4.52696376 78.5670676,4.52696376 C82.1987757,4.52696376 83.1130928,6.56390401 83.1130928,9.63121289 L83.1130928,17.2516823 L79.6971837,17.2516823 L79.6971837,10.25411 C79.6971837,8.21716972 79.1201834,7.2105981 77.5090241,7.2105981 C75.6565052,7.2105981 74.8637059,8.24096672 74.8637059,10.7584395 L74.8637059,17.2516823 L71.4477968,17.2516823 L71.4477968,4.86304429 Z"/>
      <path fill="#00455F" d="M63.3664397,4.52696376 C67.2860194,4.52696376 69.8114959,7.11499258 69.8114959,11.0690531 C69.8114959,14.999734 67.2860194,17.5860929 63.3664397,17.5860929 C59.4694875,17.5860929 56.9440111,14.999734 56.9440111,11.0690531 C56.9440111,7.11499258 59.4694875,4.52696376 63.3664397,4.52696376 L63.3664397,4.52696376 Z"/>
      <path fill="#385569" d="M47.5150628 13.2258133C47.5150628 14.6874505 48.8144659 15.3103476 50.1364964 15.3103476 51.0985827 15.3103476 52.3741013 14.9279255 52.3741013 13.7288904 52.3741013 12.6985218 50.9309719 12.3148472 48.5014526 11.8126051 46.5047884 11.3558696 44.5575694 10.709593 44.5575694 8.50523874 44.5575694 5.34107187 47.2992638 4.52696376 49.9684666 4.52696376 52.6619729 4.52696376 55.1874494 5.43792986 55.4526935 8.48144174L52.2048143 8.48144174C52.1088571 7.16258659 51.0985827 6.80437902 49.8725094 6.80437902 49.1023375 6.80437902 47.9722214 6.92378154 47.9722214 7.95415017 47.9722214 9.17572984 49.9206975 9.34314386 51.84487 9.79987939 53.8415343 10.25411 55.7883343 10.9734476 55.7883343 13.2734073 55.7883343 16.5319273 52.9272171 17.5860929 50.1126119 17.5860929 47.2271911 17.5860929 44.3887014 16.5081303 44.2684406 13.2258133L47.5150628 13.2258133zM40.612848 4.86304429L43.1131829 4.86304429 43.1131829 7.13878958 40.612848 7.13878958 40.612848 13.2734073C40.612848 14.4231785 40.9007197 14.711665 42.0547204 14.711665 42.4402253 14.711665 42.8014267 14.6874505 43.1131829 14.6160595L43.1131829 17.2754793C42.5361825 17.3710849 41.7911523 17.3948819 41.1181947 17.3948819 39.0004317 17.3948819 37.197358 16.9410688 37.197358 14.447393L37.197358 7.13878958 35.1286211 7.13878958 35.1286211 4.86304429 37.197358 4.86304429 37.197358 1.14778884 40.612848 1.14778884 40.612848 4.86304429zM22.7174568 8.67265277C22.9093712 5.50973837 25.7717455 4.52696376 28.561209 4.52696376 31.0389164 4.52696376 34.0211324 5.07805233 34.0211324 8.04975569L34.0211324 14.494987C34.0211324 15.6222136 34.1413932 16.7481878 34.4544064 17.2516823L30.9907283 17.2516823C30.8708865 16.8680078 30.7749293 16.4601188 30.7510447 16.0538997 29.6674406 17.1798738 28.1040504 17.5860929 26.5649638 17.5860929 24.1844707 17.5860929 22.3319518 16.4125247 22.3319518 13.8737599 22.3801399 8.24096672 30.7510447 11.2602641 30.6056423 8.48144174 30.6056423 7.04318407 29.5953679 6.80437902 28.3931791 6.80437902 27.0698915 6.80437902 26.2527886 7.33000062 26.1329468 8.67265277L22.7174568 8.67265277z"/>
      <polygon fill="#385569" points="18.146 17.252 14.393 17.252 11.484 5.605 11.436 5.605 8.573 17.252 4.75 17.252 .204 .141 3.979 .141 6.697 11.789 6.745 11.789 9.727 .141 13.263 .141 16.198 11.932 16.246 11.932 19.059 .141 22.764 .141"/>
      <path fill="#FFFFFF" d="M30.6056423 11.1888731C30.028642 11.6919501 28.8264532 11.7157472 27.7684097 11.9082107 26.7099472 12.0994217 25.7478609 12.4818438 25.7478609 13.7288904 25.7478609 14.9755195 26.7342508 15.3103476 27.8400633 15.3103476 30.5096851 15.3103476 30.6056423 13.2258133 30.6056423 12.4580468L30.6056423 11.1888731zM63.3664397 15.023531C65.6987447 15.023531 66.3968439 13.0583993 66.3968439 11.0690531 66.3968439 9.08012432 65.6987447 7.09119557 63.3664397 7.09119557 61.0567623 7.09119557 60.3599202 9.08012432 60.3599202 11.0690531 60.3599202 13.0583993 61.0567623 15.023531 63.3664397 15.023531L63.3664397 15.023531z"/>
    </g>
    <polygon fill="#00455F" points="184.395 20.863 183.933 20.863 183.933 18.537 183.92 18.537 183.003 20.863 182.711 20.863 181.794 18.537 181.78 18.537 181.78 20.863 181.319 20.863 181.319 18.077 182.032 18.077 182.867 20.193 183.689 18.077 184.395 18.077"/>
    <polygon fill="#00455F" points="180.822 18.449 179.946 18.449 179.946 20.863 179.484 20.863 179.484 18.449 178.608 18.449 178.608 18.077 180.822 18.077"/>
  </g>
</svg>
