<svg xmlns="http://www.w3.org/2000/svg" width="64" height="72" viewBox="0 0 64 72" xmlns:xlink="http://www.w3.org/1999/xlink">
  <defs>
    <path id="a" d="M19.75.082H.104v19.774H19.75V.082z"/>
  </defs>
  <g fill="none" fill-rule="evenodd">
    <g transform="translate(43.47 30.067)">
      <mask id="b" fill="#fff">
        <use xlink:href="#a"/>
      </mask>
      <path fill="#FF5441" d="M14.51 9.37c-.02-.2-.035-.504-.08-.803-.143-.928-.505-1.752-1.184-2.4-1.018-.972-2.26-1.264-3.605-1.104-1.4.166-2.52.873-3.31 2.073-.89 1.362-1.16 2.873-.86 4.475.19 1.02.68 1.88 1.52 2.5.93.69 1.98.9 3.11.8 1.1-.1 2.05-.55 2.83-1.34 1.11-1.12 1.55-2.52 1.59-4.18zM10.943.082c.254.028.508.057.762.083 3.684.368 6.895 2.66 7.798 6.71.192.865.277 1.743.24 2.626-.116 2.79-1.04 5.24-2.957 7.26-1.396 1.47-3.097 2.4-5.056 2.84-.955.22-1.92.29-2.892.25-2.087-.1-4.014-.69-5.663-2.05-1.538-1.28-2.46-2.93-2.863-4.9-.15-.72-.223-1.46-.206-2.2.068-2.96 1.032-5.55 3.114-7.66C4.655 1.59 6.386.69 8.37.31c.487-.093.984-.125 1.476-.187.062-.007.122-.027.183-.04h.91z" mask="url(#b)"/>
    </g>
    <path fill="#FF5441" d="M5.25 40.644c.02.198.032.508.08.813.167 1.05.605 1.954 1.438 2.62.957.766 2.06 1.004 3.25.885 1.37-.137 2.473-.776 3.284-1.9 1.01-1.395 1.305-2.975.99-4.662-.22-1.174-.824-2.11-1.858-2.715-.926-.542-1.928-.69-2.98-.54-1.07.15-1.98.623-2.72 1.422-1.032 1.11-1.442 2.466-1.484 4.077zm5.605-10.495c.24.02.483.05.725.08 2.033.21 3.862.91 5.385 2.34 1.376 1.28 2.198 2.89 2.512 4.76.11.66.183 1.34.17 2-.057 2.95-1.028 5.54-3.105 7.64-1.47 1.48-3.25 2.38-5.284 2.76-.84.15-1.684.21-2.53.17-2.068-.11-3.98-.69-5.618-2.03C1.612 46.64.682 45.05.266 43.15c-.116-.54-.15-1.093-.226-1.64 0-.063-.02-.124-.04-.186v-.933c.02-.06.04-.13.048-.2.06-.49.09-.98.18-1.47.46-2.47 1.604-4.55 3.5-6.17 1.598-1.36 3.456-2.12 5.53-2.33.23-.02.46-.05.69-.08h.913zm24.785 5.11h-3.075c.043-.22.078-.43.12-.62.277-1.32.558-2.63.83-3.95.027-.13.07-.18.203-.18h10.1c.57 0 .976.51.86 1.09-.19.92-.38 1.84-.574 2.76-.11.52-.56.88-1.09.89h-2.002c-.15-.01-.212.04-.244.19-.47 2.28-.95 4.56-1.425 6.84-.437 2.1-.88 4.2-1.306 6.3-.124.614-.63.975-1.154.965-1.025-.016-2.05 0-3.074-.004-.63 0-1.02-.49-.89-1.12.52-2.525 1.05-5.05 1.57-7.576l1.12-5.413c.01-.05.01-.103.02-.19m-12.05 0h-2.6c-.65 0-1.05-.49-.92-1.134.18-.91.37-1.816.562-2.723.1-.51.56-.88 1.07-.88H31.97c.05 0 .1.008.18.01-.027.15-.05.29-.08.427-.29 1.377-.582 2.755-.87 4.135-.026.138-.08.175-.207.17-.686-.002-1.37.005-2.056-.002-.146 0-.21.035-.243.196-.66 3.21-1.33 6.422-2 9.64l-.734 3.52c-.128.59-.54.94-1.13.94h-3.11c-.61-.005-1-.518-.878-1.125.592-2.843 1.18-5.69 1.773-8.535.305-1.474.614-2.946.92-4.418.014-.065.02-.13.035-.225"/>
  </g>
</svg>
