<svg xmlns="http://www.w3.org/2000/svg" width="116" height="72" viewBox="0 0 116 72" xmlns:xlink="http://www.w3.org/1999/xlink">
  <defs>
    <path id="a" d="M18.992 17.298V.038H.065V17.3h18.927z"/>
    <path id="c" d="M2.297.007H.033v9.005h2.264V.007z"/>
  </defs>
  <g fill="none" fill-rule="evenodd">
    <g transform="translate(96.633 31.624)">
      <mask id="b" fill="#fff">
        <use xlink:href="#a"/>
      </mask>
      <path fill="#3A393B" d="M3.665 3.227c-.008.07-.018.115-.018.16 0 3.452.002 6.902-.006 10.352 0 .26.12.3.34.3 1.59-.01 3.19.03 4.78-.02 1.01-.04 2.03-.15 3.01-.35 1.71-.35 2.9-1.32 3.33-3.08.28-1.12.3-2.25.14-3.38-.24-1.64-1.06-2.86-2.67-3.43-.6-.21-1.25-.42-1.88-.44-2.29-.1-4.59-.11-6.89-.16-.03 0-.06.01-.12.03zm15.327 5.785c-.152.905-.203 1.842-.474 2.71-.94 3.002-2.997 4.79-6.104 5.278-1.147.18-2.318.262-3.48.278-2.816.04-5.634.007-8.45.02-.323 0-.42-.083-.42-.41.01-5.47.01-10.94 0-16.41 0-.338.088-.44.433-.44 3.005.014 6.01-.004 9.017.014 1.403.008 2.8.14 4.15.556 2.577.794 4.107 2.62 4.88 5.126.24.78.303 1.616.448 2.427v.86z" mask="url(#b)"/>
    </g>
    <path fill="#3A393B" d="M23.945 39.355c.108.006.177.012.247.012 2.84 0 5.682 0 8.523-.002.15 0 .305-.024.454-.055.49-.1.66-.25.68-.753.04-.895.07-1.794.03-2.69-.04-.865-.3-1.073-1.17-1.11-.06-.003-.12-.002-.18-.002h-8.6v4.6zm-.025 3.178v6.355h-3.555V31.67h.432c4.325 0 8.65-.005 12.976.007.466.002.943.06 1.396.172 1.37.33 2.19 1.23 2.25 2.63.07 1.73.08 3.47 0 5.2-.07 1.59-1.17 2.59-2.83 2.77-.41.04-.82.06-1.24.06h-9.44zm37.83-9.406c0 .355-.01.71.004 1.063.02.425-.143.733-.476 1.004-1.468 1.195-2.23 2.75-2.24 4.648-.01 2.99 2.306 5.547 5.28 5.85 3.518.36 6.565-2.405 6.515-5.95-.025-1.81-.752-3.323-2.155-4.472-.418-.342-.598-.722-.58-1.248.022-.65.003-1.3.006-1.95.004-.85.533-1.16 1.29-.762 3.6 1.9 5.6 5.81 5.038 9.843-.56 4.006-3.594 7.246-7.553 8.064-5.42 1.12-10.66-2.564-11.44-8.036-.57-4 1.39-7.9 4.95-9.82.11-.06.22-.12.35-.17.48-.18.98.15 1 .67.01.43 0 .85 0 1.28zM3.575 31.69v.474c0 3.603-.002 7.206.003 10.81 0 .316.02.64.075.95.188 1.044.876 1.59 2.13 1.605 2.18.02 4.36 0 6.54 0 .175 0 .35-.04.525-.07.995-.17 1.538-.75 1.628-1.76.032-.37.05-.73.052-1.1.004-3.48.002-6.95.002-10.42v-.48c.122-.02.222-.04.322-.04.966-.01 1.933 0 2.9-.01.284-.01.357.09.356.37-.007 3.87 0 7.74-.01 11.62 0 .85-.13 1.69-.46 2.49-.646 1.57-1.896 2.35-3.507 2.62-.6.1-1.21.13-1.82.14-2.25.01-4.5.02-6.75-.01-.69-.01-1.39-.09-2.06-.25-1.95-.46-3.12-1.81-3.38-3.8-.07-.54-.11-1.09-.11-1.63C0 39.52 0 35.83 0 32.13c0-.462.005-.464.465-.464H3.15c.127 0 .254.01.425.02m69.93 17.23c.44-.917.84-1.77 1.26-2.61 1.995-3.985 3.98-7.97 6.005-11.94.382-.75.86-1.476 1.402-2.12 1.29-1.535 3.345-1.53 4.572.052.745.96 1.374 2.03 1.924 3.12 2.216 4.39 4.382 8.8 6.566 13.21.035.07.058.15.1.258-.112.01-.2.03-.286.03-1.13 0-2.263-.006-3.394.006-.21 0-.31-.076-.4-.256-2.03-4.136-4.064-8.272-6.1-12.41-.077-.156-.152-.32-.25-.464-.277-.41-.68-.42-.93.01-.275.47-.506.96-.745 1.444-1.88 3.81-3.74 7.62-5.62 11.425-.05.104-.2.23-.3.23-1.25.02-2.5.01-3.82.01m-18.44-3.38v3.36c-.12.01-.22.02-.32.02-3.8 0-7.59 0-11.39-.01-.45 0-.9-.053-1.33-.144-1.48-.313-2.31-1.305-2.42-2.858-.02-.19-.02-.38-.02-.57V31.71h3.83v12.23c0 .212.01.425.03.636.07.68.21.833.88.934.2.03.4.033.6.033h10.15"/>
    <g transform="translate(63.667 30.064)">
      <mask id="d" fill="#fff">
        <use xlink:href="#c"/>
      </mask>
      <path fill="#8AC53F" d="M1.165 9.012C.54 9.012.033 8.504.033 7.877V1.14C.033.516.54.008 1.165.008c.625 0 1.132.508 1.132 1.134V7.88c0 .626-.507 1.134-1.132 1.134" mask="url(#d)"/>
    </g>
    <path fill="#8AC53F" d="M109.04 56.418c0-1.422 1.15-2.575 2.57-2.575 1.418 0 2.57 1.153 2.57 2.575 0 1.422-1.152 2.575-2.57 2.575-1.42 0-2.57-1.153-2.57-2.575m-10.904 0c0-1.422 1.15-2.575 2.57-2.575 1.418 0 2.57 1.153 2.57 2.575 0 1.422-1.152 2.575-2.57 2.575-1.42 0-2.57-1.153-2.57-2.575m-10.904 0c0-1.422 1.15-2.575 2.57-2.575 1.418 0 2.57 1.153 2.57 2.575 0 1.422-1.152 2.575-2.57 2.575-1.42 0-2.57-1.153-2.57-2.575m-10.904 0c0-1.422 1.15-2.575 2.57-2.575 1.418 0 2.57 1.153 2.57 2.575 0 1.422-1.152 2.575-2.57 2.575-1.42 0-2.57-1.153-2.57-2.575m-10.904 0c0-1.422 1.15-2.575 2.57-2.575 1.418 0 2.568 1.153 2.568 2.575 0 1.422-1.15 2.575-2.57 2.575-1.417 0-2.568-1.153-2.568-2.575m-10.904 0c0-1.422 1.15-2.575 2.57-2.575 1.418 0 2.568 1.153 2.568 2.575 0 1.422-1.15 2.575-2.57 2.575-1.418 0-2.568-1.153-2.568-2.575m-10.904 0c0-1.422 1.15-2.575 2.57-2.575 1.418 0 2.568 1.153 2.568 2.575 0 1.422-1.15 2.575-2.57 2.575-1.418 0-2.568-1.153-2.568-2.575m-10.904 0c0-1.422 1.15-2.575 2.57-2.575 1.418 0 2.568 1.153 2.568 2.575 0 1.422-1.15 2.575-2.57 2.575-1.418 0-2.568-1.153-2.568-2.575m-10.904 0c0-1.422 1.15-2.575 2.57-2.575 1.418 0 2.568 1.153 2.568 2.575 0 1.422-1.15 2.575-2.57 2.575-1.418 0-2.568-1.153-2.568-2.575m-10.904 0c0-1.422 1.15-2.575 2.57-2.575 1.418 0 2.568 1.153 2.568 2.575 0 1.422-1.15 2.575-2.57 2.575-1.418 0-2.568-1.153-2.568-2.575M0 56.418c0-1.422 1.15-2.575 2.57-2.575 1.418 0 2.568 1.153 2.568 2.575 0 1.422-1.15 2.575-2.57 2.575C1.15 58.993 0 57.84 0 56.418"/>
  </g>
</svg>
