<svg xmlns="http://www.w3.org/2000/svg" width="102" height="72" viewBox="0 0 102 72">
  <path fill="#0082CA" fill-rule="evenodd" d="M9.82 44.483l-.058.042-.06.036c-1.078.75-2.686 1.24-4.005 1.24h-.002c-1.933-.04-2.638-.72-2.676-2.57.04-2.13.75-2.79 3.17-2.94l3.33-.15h.29v4.37zm6.07 1.05c-.107-.36-.41-.58-.772-.58-.097.006-.187.01-.305.038-.516.13-.803.17-1.2.19-.754.04-.887-.25-.937-1.1V32.53c-.022-.268-.162-.534-.37-.695l-.075-.048c-.02-.02-.04-.044-.08-.06-.62-.37-1.67-.665-2.56-.89l-.06-.02c-1.05-.253-2.22-.387-3.38-.387-.68 0-1.29.05-1.53.082-.5.047-1.87.274-2.33.43-.13.043-.56.248-.58.654.01.21.25.887.25.887.16.475.32.59.62.65.24.028.76-.08 1.11-.14.9-.164 1.48-.227 1.9-.232.54 0 1.22-.01 2.02.1 1.52.23 2.1.7 2.1.7v4.49h-.14l-3.23.08C2 38.26 0 39.97.03 43.42c-.01 1.56.483 2.82 1.42 3.63.87.76 2.15 1.16 3.686 1.16h.008c1.76 0 3.28-.54 4.76-1.71l.14-.11.07.17c.35.78.96 1.29 1.79 1.5.37.11.8.16 1.35.16.14 0 .28-.01.4-.02.496-.07 1.15-.16 1.88-.5.405-.19.69-.42.668-.84-.02-.37-.3-1.3-.3-1.3zm47.836 2.6H62.15c-.24 0-.443-.08-.568-.218-.127-.148-.182-.347-.182-.62V32.453c-.012-.28.06-.483.204-.62.125-.125.31-.18.56-.18h1.424c.264 0 .444.052.584.168.143.12.218.32.214.56l.015.39.02.34.23-.24c.67-.71 1.81-1.57 3.46-1.57.23 0 .64.04.99.1.3.06.41.36.39.51 0 .08 0 .14-.01.2l-.24 1.49c-.01.26-.25.45-.46.45-.18 0-.28-.02-.4-.04-.17-.02-.36-.06-.7-.06-1.1 0-2.33.73-3.15 1.86l-.03.04V47.3c0 .255-.06.456-.19.602-.12.15-.33.235-.57.235M54.02 38.09h-7.23c.1-3.63 1.49-5.112 3.777-5.112 2.226 0 3.486 1.215 3.486 4.062 0 .222 0 .79-.033 1.052m-3.386-7.43c-4.047 0-7.096 2.804-7.096 9.18 0 5.845 2.75 8.716 7.924 8.716.818 0 1.792-.095 2.723-.283.147-.026.297-.066.44-.1.59-.16 1.184-.403 1.4-.504.326-.12.576-.37.596-.68-.09-.46-.21-.94-.34-1.39-.12-.3-.4-.5-.69-.48-.09 0-1.48.31-1.57.33-.79.21-1.67.33-2.48.33-3.68 0-4.77-1.75-4.77-5.35v-.26h9.64c.29-.02.51-.24.55-.52 0-.04.01-.08.01-.12.03-.63.06-1.29.06-1.82 0-4.43-2.16-7-6.37-7m22.82 24.16h-.11c-.56 0-1.03-.04-1.49-.13-.28-.05-.38-.415-.33-.914 0 0 .04-.537.12-.91.08-.39.26-.56.46-.56h.06l.16.004.35.03c.28.03.568.07.79.07 1.88-.02 2.89-.707 3.61-2.44l.87-2.107.08-.22.03-.09-.03-.1-5.79-15.24c-.024-.07-.032-.137-.032-.2 0-.06.01-.17.09-.26.06-.065.16-.11.27-.11h2.19c.32 0 .558.17.63.41L79.19 43l.253.73.26-.73 3.94-10.837c.08-.303.33-.5.613-.5h1.895c.15 0 .26.03.33.09.08.068.11.16.11.237 0 .104-.02.19-.05.277l-6.47 17.3c-1.41 3.85-3.2 5.284-6.59 5.284m26.09-6.73c-.373 0-.684-.17-.862-.5l-3.47-5.32-.122-.18-.12.18-3.452 5.32c-.183.33-.494.5-.876.5H88.75c-.15 0-.26-.04-.35-.102-.09-.075-.156-.21-.14-.33 0-.155.05-.315.14-.45l5.005-7.57.057-.08-.054-.074-4.61-7.08c-.09-.13-.13-.24-.12-.35 0-.3.27-.48.53-.48h1.736c.38 0 .67.16.8.41l3.25 4.91.11.17.11-.17 3.23-4.88c.15-.28.44-.45.78-.45h1.8c.26 0 .54.18.54.475 0 .11-.04.22-.12.336l-4.63 7.08-.05.08.06.08 5 7.543c.11.15.16.303.16.454.01.137-.05.268-.14.34-.09.07-.2.107-.36.107h-1.84l-.07.01zm-74.933.04c-.816 0-1.604-.13-2.29-.38-.624-.21-1.12-.52-1.472-.91-.98-1.08-1.07-2.42-1.08-4.19V25.74c0-.1.05-.2.11-.275.58-.65 1.34-1.14 2.24-1.44.06-.02.098-.02.14-.02.07 0 .26.01.42.16.14.14.21.34.21.6v17.99c.01.936.23 1.68.648 2.14.35.39.92.588 1.65.588.17 0 .37-.015.61-.044.53-.07 1.04-.22 1.37-.33.09-.04.17-.05.27-.05.288 0 .538.2.635.5 0 0 .257.86.29 1.27.02.36-.3.59-.59.69-.37.15-1.684.61-3.15.61m15.87-2.58c-.093-.3-.343-.5-.64-.5-.09 0-.176.02-.266.05-.49.16-1.224.36-1.916.37l-.072.01c-.743 0-1.303-.2-1.66-.59-.34-.37-.58-.97-.6-2.09v-.06l.09-8.91h3.66c.195 0 .357-.02.51-.14.18-.15.21-.38.204-.51v-1.12c0-.24-.07-.42-.207-.53-.16-.12-.34-.13-.48-.13h-3.7v-5.55c0-.27-.063-.46-.2-.6-.15-.15-.35-.17-.42-.17-.045 0-.084 0-.153.02-.218.08-.79.28-1.42.72-.22.16-.44.36-.667.58-.06.08-.09.17-.09.27l-.09 4.66h-1.9c-.18 0-.38.044-.53.2-.14.16-.17.35-.17.542V33.1c0 .22-.01.41.168.6.198.178.387.16.607.17h1.778l-.17 8.38.006.36c0 1.776.09 3.12 1.08 4.21.76.82 2.14 1.29 3.78 1.298 1.48 0 2.64-.39 3.16-.604.28-.12.6-.344.59-.7 0-.33-.29-1.27-.29-1.27"/>
</svg>
