<svg xmlns="http://www.w3.org/2000/svg" width="187" height="72" viewBox="0 0 187 72">
  <g fill="none" fill-rule="evenodd">
    <g fill="#FF6E40">
      <path d="M45.32 54.455h-9.272c-1.215 0-2.385-.307-3.42-.92-1.035-.615-1.89-1.493-2.475-2.5l-2.61-4.738c-.315-.57-.856-.877-1.53-.877-.63 0-1.216.35-1.53.877l-2.61 4.737c-.586 1.052-1.44 1.886-2.476 2.5-1.035.614-2.205.92-3.42.92h-9.27c-1.802 0-3.467-.657-4.727-1.93C.675 51.298 0 49.674 0 47.92V28.49c0-1.753.675-3.376 1.98-4.604C3.24 22.658 4.905 22 6.706 22H45.32c1.8 0 3.465.658 4.725 1.886 1.26 1.228 1.98 2.85 1.98 4.605v19.43c0 1.76-.675 3.38-1.935 4.61-1.305 1.23-3.016 1.93-4.77 1.93zM26.01 43.27c1.44 0 2.746.747 3.42 1.975l2.61 4.78c.406.702.946 1.272 1.666 1.71.72.395 1.53.614 2.34.614h9.27c1.216 0 2.34-.44 3.196-1.28.856-.838 1.306-1.93 1.306-3.118V28.53c0-1.182-.45-2.28-1.306-3.112-.855-.833-1.98-1.27-3.195-1.27H6.705c-1.215 0-2.34.437-3.196 1.27-.86.833-1.31 1.93-1.31 3.114v19.43c0 1.183.45 2.28 1.3 3.113.852.833 1.98 1.27 3.193 1.27h9.27c.81 0 1.62-.218 2.34-.613.72-.394 1.26-1.008 1.666-1.71l2.565-4.78c.72-1.228 2.025-1.974 3.465-1.974-.042 0-.042 0 0 0z"/>
      <path d="M14.176 44.718c-3.69 0-6.705-2.938-6.705-6.49 0-3.553 3.02-6.492 6.71-6.492s6.66 2.94 6.66 6.49c0 3.554-3.01 6.492-6.66 6.492zm0-10.92c-2.52 0-4.545 1.973-4.545 4.43 0 2.455 2.03 4.43 4.55 4.43 2.48 0 4.55-1.975 4.55-4.43 0-2.457-2.07-4.43-4.542-4.43zm23.674 10.92c-3.692 0-6.662-2.938-6.662-6.49 0-3.553 3.015-6.492 6.66-6.492 3.69 0 6.706 2.94 6.706 6.49 0 3.554-3.06 6.492-6.705 6.492zm0-10.92c-2.522 0-4.547 1.973-4.547 4.43 0 2.455 2.025 4.43 4.546 4.43 2.52 0 4.54-1.975 4.54-4.43 0-2.457-2.07-4.43-4.55-4.43z"/>
    </g>
    <path fill="#000" d="M162.87 47.57l-6.66-18.465h2.7l5.175 14.955h.09l5.4-14.955h2.7L165.39 47.57m8.506 0V29.104h6.436c1.62 0 2.97.526 4.185 1.58 1.17 1.05 1.755 2.367 1.755 3.946 0 1.273-.45 2.413-1.305 3.422-.855 1.01-1.935 1.623-3.24 1.886l-.045.087 5.31 7.5v.088h-2.88l-5.085-7.456h-2.7v7.456h-2.43v-.044zm2.43-9.694h3.916c.99 0 1.8-.307 2.52-.92.675-.615 1.035-1.404 1.035-2.325 0-.78-.315-1.53-.945-2.23-.63-.66-1.44-1.01-2.475-1.01h-4.05v6.49zm-110.98-.482c0-5.833 5.04-10.57 10.98-10.57 3.286 0 5.672 1.272 7.427 2.895l-2.07 2.01c-1.26-1.14-2.97-2.06-5.356-2.06-4.365 0-7.786 3.42-7.786 7.67s3.43 7.672 7.79 7.672c2.84 0 4.46-1.096 5.49-2.105.86-.834 1.4-2.018 1.62-3.64h-7.06v-2.8h9.95c.09.525.18 1.14.18 1.797 0 2.15-.63 4.826-2.564 6.755-1.89 1.93-4.32 2.982-7.56 2.982-5.986-.044-11.027-4.78-11.027-10.614zm29.208-3.026c-3.87 0-7.02 2.85-7.02 6.798 0 3.903 3.15 6.798 7.02 6.798 3.87 0 7.02-2.895 7.02-6.798-.045-3.947-3.195-6.798-7.02-6.798zm0 10.92c-2.115 0-3.96-1.71-3.96-4.122 0-2.456 1.845-4.123 3.96-4.123s3.96 1.667 3.96 4.123c-.045 2.412-1.845 4.122-3.96 4.122zm15.256-10.92c-3.87 0-7.02 2.85-7.02 6.798 0 3.903 3.15 6.798 7.02 6.798 3.87 0 7.02-2.895 7.02-6.798 0-3.947-3.15-6.798-7.02-6.798zm0 10.92c-2.115 0-3.96-1.71-3.96-4.122 0-2.456 1.845-4.123 3.96-4.123s3.96 1.667 3.96 4.123c0 2.412-1.845 4.122-3.96 4.122zm18.767-10.482v1.097h-.09c-.675-.79-2.025-1.535-3.69-1.535-3.51 0-6.706 2.982-6.706 6.842 0 3.815 3.2 6.798 6.71 6.798 1.67 0 2.97-.702 3.69-1.535h.09v.964c0 2.588-1.44 3.99-3.73 3.99-1.89 0-3.06-1.314-3.51-2.41l-2.652 1.096c.765 1.798 2.79 4.035 6.166 4.035 3.6 0 6.615-2.062 6.615-7.105V34.806h-2.88zm-3.51 10.482c-2.116 0-3.87-1.71-3.87-4.078 0-2.413 1.754-4.167 3.87-4.167 2.07 0 3.735 1.754 3.735 4.167 0 2.368-1.665 4.078-3.735 4.078zm8.55-17.718h3.06v20h-3.06zm11.476 17.718c-1.575 0-2.655-.7-3.375-2.06l9.316-3.773-.315-.79c-.59-1.534-2.34-4.34-5.99-4.34-3.6 0-6.57 2.762-6.57 6.797 0 3.816 2.97 6.798 6.93 6.798 3.19 0 5.04-1.886 5.8-3.026l-2.39-1.534c-.765 1.18-1.89 1.92-3.42 1.92zm-.27-8.29c1.216 0 2.25.615 2.61 1.45l-6.255 2.542c-.045-2.63 2.115-3.99 3.645-3.99z"/>
  </g>
</svg>
