<svg xmlns="http://www.w3.org/2000/svg" width="136" height="72" viewBox="0 0 136 72">
  <g fill="none" fill-rule="evenodd">
    <path fill="#000" d="M125.825 33.99l2.885 8.092h-5.866l2.98-8.09zm-3.097-3.15l-6.66 17.27h4.704l1.054-3.052h7.874l1.006 3.052h5.108l-6.717-17.27h-6.37zm-13.37 17.276h4.77v-17.28h-4.77v17.28zM76.23 30.836L72.25 44.53l-3.814-13.695h-5.148l5.446 17.28h6.875l5.49-17.28h-4.87zm19.29 3.76h2.05c2.974 0 4.898 1.37 4.898 4.915 0 3.55-1.924 4.92-4.898 4.92h-2.05V34.6zm-4.732-3.76v17.28h7.735c4.122 0 5.467-.7 6.923-2.274 1.028-1.104 1.692-3.527 1.692-6.177 0-2.428-.562-4.596-1.543-5.946-1.768-2.42-4.314-2.89-8.113-2.89h-6.694zm-45.2-.027v17.3h4.81V34.97h3.73c1.234 0 2.113.316 2.71.965.753.822 1.06 2.15 1.06 4.576v7.6h4.663v-9.56c0-6.82-4.25-7.74-8.4-7.74h-8.57zm37.52.02l.002 17.28h4.77V30.83h-4.772z"/>
    <path fill="#77B900" d="M4.118 37.836s3.645-5.504 10.922-6.073v-1.996C6.98 30.43 0 37.414 0 37.414S3.953 49.11 15.04 50.18v-2.12C6.904 47.01 4.118 37.835 4.118 37.835zm10.922 6.002v1.943c-6.15-1.12-7.856-7.66-7.856-7.66s2.953-3.35 7.856-3.89v2.14h-.01c-2.573-.312-4.584 2.14-4.584 2.14s1.127 4.14 4.594 5.34zm0-17.754v3.683c.236-.02.473-.034.71-.043 9.165-.316 15.134 7.69 15.134 7.69s-6.857 8.534-14 8.534c-.655 0-1.268-.062-1.844-.167v2.28c.492.07 1.003.1 1.535.1 6.648 0 11.456-3.47 16.112-7.58.77.64 3.93 2.17 4.58 2.85-4.426 3.79-14.742 6.85-20.59 6.85-.563 0-1.106-.034-1.637-.09v3.2h25.268v-27.3H15.04zm0 8.145v-2.47c.234-.02.47-.03.71-.04 6.59-.21 10.913 5.79 10.913 5.79s-4.67 6.632-9.675 6.632c-.72 0-1.367-.12-1.948-.32v-7.47c2.565.317 3.08 1.476 4.623 4.107l3.43-2.96s-2.503-3.36-6.723-3.36c-.46 0-.9.033-1.33.08z"/>
  </g>
</svg>
