<svg xmlns="http://www.w3.org/2000/svg" width="52" height="72" viewBox="0 0 52 72">
  <g fill="none" fill-rule="evenodd">
    <path fill="#00BCE7" d="M30.147 30.6c-1.248.398-2.577.612-3.956.612-1.37 0-2.7-.214-3.95-.61-1.46-.464-2.36-1.957-2.05-3.468.57-2.748 1.99-5.182 3.97-7.015 1.16-1.07 2.92-1.07 4.07 0 1.98 1.83 3.4 4.26 3.97 7.01.32 1.51-.58 3-2.04 3.47m7.04-1.4l-8.3-14.47c-.26-.46-.74-.74-1.26-.74h-2.89c-.52 0-1 .28-1.26.73L15.2 29.2c-.26.454-.26 1.015 0 1.47l1.44 2.514c.26.454.742.735 1.263.735H34.49c.52 0 1.002-.28 1.263-.74l1.44-2.52c.26-.46.26-1.02 0-1.47"/>
    <path fill="#54565B" d="M37.362 47.78l-5.007 9.926c-.08.16-.243.26-.423.26h-1.65c-.18 0-.342-.1-.424-.26l-5.004-9.925c-.086-.16-.078-.36.012-.52l.535-.93c.11-.18.3-.29.51-.29h.49c.13 0 .25.07.3.19l4.21 8.44c.09.18.34.18.43 0l4.21-8.43c.06-.12.17-.19.3-.19h.49c.21 0 .4.11.51.3l.54.93c.098.16.1.36.02.53M12.6 47.8l-5.01 9.93c-.08.16-.24.26-.42.26H5.49c-.18 0-.34-.1-.425-.26L.06 47.78c-.085-.166-.078-.363.012-.524l.536-.934c.103-.18.294-.29.5-.29h.487c.125 0 .243.07.298.186L6.1 54.652c.088.177.34.177.427 0l4.205-8.434c.055-.116.173-.186.3-.186h.485c.206 0 .397.11.5.29l.537.936c.092.16.097.358.014.523m7.17-1.6c-.087-.08-.207-.14-.34-.14h-.75c-.206 0-.397.12-.5.3l-.534.94c-.047.09-.073.18-.073.28v9.95c0 .27.22.48.48.48h1.39c.27 0 .48-.21.48-.48V46.52c0-.135-.05-.256-.14-.344m23.21.15c.11-.18.3-.293.5-.293h7.17c.21 0 .39.11.49.287l.51.875c.08.127.11.27.11.414v.21c0 .18-.14.32-.32.32h-6.54c-.13 0-.24.11-.24.24v2.28c0 .13.11.24.24.24h4.43c.22 0 .39.18.39.39v1.31c0 .21-.17.39-.39.39h-4.43c-.13 0-.24.11-.24.24v2.35c0 .13.11.24.24.24h6.53c.18 0 .33.14.33.32v.22c0 .144-.04.29-.11.412l-.51.88c-.1.173-.29.282-.49.282h-7.17c-.202 0-.394-.11-.5-.29l-.5-.87c-.07-.12-.11-.26-.11-.41v-8.79c0-.14.04-.283.11-.41l.5-.866z"/>
  </g>
</svg>
