<svg xmlns="http://www.w3.org/2000/svg" width="44" height="36" viewBox="0 0 44 36">
  <path fill="#02B3E4" fill-rule="evenodd" d="M35.6932 19.7996c-.112.5484-.279 1.088-.4963 1.6034-.214.5066-.479.9954-.787 1.4528-.306.4536-.657.8802-1.044 1.268-.387.3878-.812.7398-1.265 1.0463-.456.309-.944.575-1.449.789-.514.218-1.052.386-1.599.498-.11.023-.221.043-.333.062.4807-1.285.744-2.676.744-4.13V8.237h.0003l6.4-3.7058v13.542c0 .582-.0583 1.163-.1734 1.727zM21.4694 31.2562c-.5784.2454-1.1837.4338-1.799.56-.6326.13-1.2843.1957-1.937.1957-.6528 0-1.3045-.066-1.937-.196-.6155-.127-1.2208-.315-1.7992-.56-.5683-.241-1.1167-.54-1.6298-.888-.5088-.345-.9873-.741-1.4223-1.177-.434-.436-.829-.916-1.173-1.426-.346-.515-.644-1.065-.884-1.635-.244-.58-.432-1.187-.558-1.805-.129-.6347-.195-1.288-.195-1.9428V9.471l8.534-4.9402v13.542h-.0003c0 5.1456 3.6228 9.4425 8.45 10.4657-.1883.227-.387.4455-.5946.654-.435.436-.914.832-1.4226 1.1767-.513.3477-1.0615.6462-1.63.8872zM38 3.296l-2.1334-1.2352-8.5337 4.941v15.383c0 .6546-.066 1.308-.195 1.9424-.126.6172-.314 1.2242-.559 1.8042-.064.15-.131.2988-.202.446-.258-.029-.515-.069-.767-.121-.547-.1122-1.085-.2797-1.599-.4977-.505-.2143-.993-.4796-1.449-.7886-.453-.306-.878-.658-1.265-1.046-.387-.388-.738-.814-1.044-1.268-.308-.457-.5727-.946-.7864-1.453-.2175-.515-.3845-1.055-.4964-1.603-.115-.564-.1736-1.145-.1736-1.727h.001V3.297l-2.133-1.2358v.001l-.0006-.001L6 8.236v14.149c.0002 6.4984 5.2533 11.7663 11.7333 11.7663 2.1427 0 4.151-.576 5.88-1.582l8.6543-5.0106C35.6746 25.7727 38 22.195 38 18.0727V3.296z"/>
</svg>
