<?xml version="1.0" encoding="utf-8"?>
<!-- Generator: Adobe Illustrator 16.0.0, SVG Export Plug-In . SVG Version: 6.00 Build 0)  -->
<!DOCTYPE svg PUBLIC "-//W3C//DTD SVG 1.1//EN" "http://www.w3.org/Graphics/SVG/1.1/DTD/svg11.dtd">
<svg version="1.1" id="Layer_1" xmlns="http://www.w3.org/2000/svg" xmlns:xlink="http://www.w3.org/1999/xlink" x="0px" y="0px"
	 width="368.334px" height="361.667px" viewBox="0 0 368.334 361.667" style="enable-background:new 0 0 368.334 361.667;"
	 xml:space="preserve">
<style type="text/css">
<![CDATA[
	.st0{fill:none;stroke:#000000;stroke-width:2;stroke-linecap:round;stroke-linejoin:round;stroke-miterlimit:10;}
	.st1{fill:#F0F2F5;stroke:#323233;stroke-width:2;stroke-linecap:round;stroke-linejoin:round;stroke-miterlimit:10;}
]]>
</style>
<g>
	<path class="st0" d="M311.418,61.67V34.139c0-11.633,7.354-21.522,17.916-25.355H102.367c-48.529,0-43.673,54.125-43.673,54.125
		V348.38c0,0,215.847,0,217.183,0c19.629,0,35.541-15.91,35.541-35.539v-85.558V98.289V62.907
		C311.418,62.907,311.406,62.458,311.418,61.67z"/>
</g>
<g>
	<path class="st1" d="M44.745,348.38c0.444,0,228.501,0,228.501,0c-19.629,0-35.541-15.91-35.541-35.539v-35.539H9.206v35.539
		C9.206,332.47,25.116,348.38,44.745,348.38z"/>
</g>
<path class="st1" d="M358.803,85.127V30.662c0-12.56-10.67-22.74-23.693-22.74s-23.691,10.181-23.691,22.74v54.465H358.803z"/>
<g>
	<path class="st0" d="M206.133,101.577"/>
	<path class="st0" d="M206.133,101.577"/>
	<polyline class="st0" points="150.613,138.408 187.942,60.327 222.873,139.094 	"/>
	<line class="st0" x1="167.051" y1="103.82" x2="206.435" y2="103.82"/>
	<g>
		<line class="st0" x1="207.8" y1="67.797" x2="245.138" y2="67.797"/>
		<line class="st0" x1="226.469" y1="86.465" x2="226.469" y2="49.128"/>
	</g>
</g>
<line class="st0" x1="94.604" y1="160.212" x2="278.881" y2="160.212"/>
<line class="st0" x1="94.604" y1="197.067" x2="278.881" y2="197.067"/>
<line class="st0" x1="94.604" y1="233.923" x2="278.881" y2="233.923"/>
</svg>
