<?xml version="1.0" encoding="utf-8"?>
<!-- Generator: Adobe Illustrator 16.0.0, SVG Export Plug-In . SVG Version: 6.00 Build 0)  -->
<!DOCTYPE svg PUBLIC "-//W3C//DTD SVG 1.1//EN" "http://www.w3.org/Graphics/SVG/1.1/DTD/svg11.dtd">
<svg version="1.1" id="Layer_1" xmlns="http://www.w3.org/2000/svg" xmlns:xlink="http://www.w3.org/1999/xlink" x="0px" y="0px"
	 width="62.307px" height="176.62px" viewBox="0 0 62.307 176.62" style="enable-background:new 0 0 62.307 176.62;"
	 xml:space="preserve">
<style type="text/css">
<![CDATA[
	.st0{fill:none;stroke:#000000;stroke-width:2;stroke-linecap:round;stroke-linejoin:round;stroke-miterlimit:10;}
	.st1{fill:none;stroke:#000000;stroke-width:2;stroke-linecap:round;stroke-linejoin:round;stroke-dasharray:4.2623,4.2623;}
	.st2{fill:#CF2732;}
]]>
</style>
<path class="st2" d="M36.225,23.766L36.177,8.595c-0.004-1.013-0.828-1.83-1.841-1.825l-8.082,0.041
	c-1.01,0.006-1.825,0.827-1.822,1.838l0.049,15.177"/>
<polygon class="st0" points="7.354,59.116 7.548,172.437 53.906,172.437 53.711,58.879 "/>
<polyline class="st0" points="50.41,58.896 48.021,48.312 12.935,48.492 10.654,59.099 "/>
<polyline class="st0" points="45.68,46.863 43.291,36.279 17.542,36.411 15.262,47.018 "/>
<polyline class="st0" points="40.95,34.83 38.562,24.246 22.148,24.33 19.868,34.937 "/>
<g>
	<g>
		<line class="st1" x1="22.782" y1="172.151" x2="22.299" y2="59.25"/>
	</g>
</g>
</svg>
